<?xml version="1.0" encoding="utf-8"?>
<!-- Generator: Adobe Illustrator 21.0.0, SVG Export Plug-In . SVG Version: 6.00 Build 0)  -->
<svg version="1.1" xmlns="http://www.w3.org/2000/svg" xmlns:xlink="http://www.w3.org/1999/xlink" x="0px" y="0px"
	 viewBox="0 0 533.4 622.3" style="enable-background:new 0 0 533.4 622.3;" xml:space="preserve">
<style type="text/css">
	.st0{fill:#6E0033;}
	.st1{fill:#FFFFFF;}
</style>
<g id="Layer_2">
	<path class="st0" d="M426.7,21.5c112.2,50.2,125.2,298.2,88.2,444.6c-12.8,50.5-32.3,94.5-66.4,119.9
		c-45.3,33.9-115.2,32.8-194.9,36.2c-2.2,0-4.3,0-6.5,0c-52.1-5.6-108.8-5.8-144.8-24.9C65,577.5,41.8,537.8,27.2,495.5
		C-17.6,365.7-8.7,138.4,67.5,50.9c39.3-45.2,114.1-51,199.3-51C325.1,0,384.9,2.8,426.7,21.5z"/>
	<path class="st1" d="M468,547.5c76.7-109.9,75.7-396.1-12-488.7c-44.5-47-143.8-49.4-228.7-45.2c-21.9,1.1-46,2.6-68.6,6.8
		c-47.3,8.7-74.8,24-96.9,57.7c-80,121.8-71.9,438.1,43.6,505.6c18.1,10.6,45.4,16.7,76.2,20.4c77.4,9,181.4,9.8,239.6-15.8
		C438,580.8,457.2,563.1,468,547.5z"/>
</g>
<g id="Original">
	<g id="XMLID_2_">
		<g>
			<path class="st0" d="M426.7,21.5c112.2,50.2,125.2,298.2,88.2,444.6c-12.8,50.5-32.3,94.5-66.4,119.9
				c-45.3,33.9-115.2,32.8-194.9,36.2c-2.2,0-4.3,0-6.5,0c-52.1-5.6-108.8-5.8-144.8-24.9C65,577.5,41.8,537.8,27.2,495.5
				C-17.6,365.7-8.7,138.4,67.5,50.9c39.3-45.2,114.1-51,199.3-51C325.1,0,384.9,2.8,426.7,21.5z M468,547.5
				c76.7-109.9,75.7-396.1-12-488.7c-44.5-47-143.8-49.4-228.7-45.2c-21.9,1.1-46,2.6-68.6,6.8c-47.3,8.7-74.8,24-96.9,57.7
				c-80,121.8-71.9,438.1,43.6,505.6c18.1,10.6,45.4,16.7,76.2,20.4c77.4,9,181.4,9.8,239.6-15.8C438,580.8,457.2,563.1,468,547.5z"
				/>
			<path d="M510.5,340.5c0.7,8.7-11.9,10.8-15.3,3.4C490,332.2,509.8,331.5,510.5,340.5z M495.3,341.6c0.7,7.2,15.3,5.5,14.2-2.3
				C506.5,336.5,495.4,335.2,495.3,341.6z"/>
			<path d="M507.3,425.4c-0.2,1-1.1,1.1-1.1,2.3c0,0.7,0,1.5,0,2.3c-6.3-2.5-13.4-4.2-21.8-4.5c3.2-5.1-1.7-7.3,2.2-12.5
				c7.5-2.3,16.6,2.7,13.1,11.3C502,426.3,504.6,426.3,507.3,425.4z M497.4,424.2c8-6.3-10.1-13.6-10.9-4.5
				C487.5,424.1,492.5,424.1,497.4,424.2z"/>
			<path d="M506.2,369.9c2.6,0.3,0.7,5,0,5.6c-7.5-2.6-21.6,1.5-22.9-4.5C492.7,369,501.5,377,506.2,369.9z"/>
			<path d="M508.4,355.2c-2.4,3.4-18.4-1.3-22.9,0C489.3,350.4,502.3,354.9,508.4,355.2z"/>
			<path d="M504,260.2c0,8.7,0,17.4,0,26c-6.5,5.7-21.4,2.6-32.6,3.4c-2.1-2.4-0.7-8.3-1.1-12.5c2-2.9,10.5,1.1,10.9-3.4
				c-1.5-2.9-9.2,0.6-10.9-2.3c0.4-4.5-1-10.9,1.1-13.6C482.8,259.3,496.9,253,504,260.2z M488.8,272.6c-1.8,4.2,8.3,5.3,7.6,1.1
				C495.9,271.2,491,273.3,488.8,272.6z"/>
			<path d="M502.9,382.4c9.5,1.9-6,16.6-12,6.8C493.4,390.2,507.8,391,502.9,382.4z"/>
			<path d="M488.8,396c3.4-1.8,12.5,2,15.3,1.1C503,402.9,489.8,397.1,488.8,396z"/>
			<path d="M501.8,401.6c2.4,0.5,0.9,6,0,6.8c-5.8-0.4-13.3,1-15.3-3.4C488.9,402.3,502.3,411.4,501.8,401.6z"/>
			<path d="M498.5,220.6c4.4,6.6,3.9,22.2,2.2,31.7c-4,0-8,0-12,0c-2.1-2.4-0.7-8.3-1.1-12.5c1.1-2.6,7.8,0.5,8.7-2.3
				c-1.7-6.8-19.1-3.2-22.9-1.1c-0.7,4.9,7.6,0.4,8.7,3.4c0.1,4.8,2.2,8.3,0,12.5c-4.6-1-7.7,3-10.9,0c-1.5-7.8-2-16.8-2.2-26
				C472.1,217.7,491.1,220.8,498.5,220.6z"/>
			<path d="M507.3,367.7c-2.4-3.7-13.7-5.9-13.1,2.3C486.4,361.1,506.5,357.6,507.3,367.7z"/>
			<path d="M495.3,201.3c2.1,2.7,3.2,6.5,3.3,11.3c-8.9,2.8-19.1,4.3-30.5,4.5c-2.1-2.4-0.7-8.3-1.1-12.5
				C477.3,204.6,485,201.6,495.3,201.3z"/>
			<path d="M496.3,379c0,1.5,0,3,0,4.5c-1.6-1.8-4.5-0.8-5.4,1.1C488,382.3,493.5,379.1,496.3,379z"/>
			<path d="M480.1,438.9c6.6-0.9,9.2,2.5,15.3,2.3c-0.1,8.3-14.9-7.6-15.3,4.5C477.6,445.2,479.2,439.7,480.1,438.9z"/>
			<path d="M488.8,164c1.1,9.8,6.5,21,4.3,30.5c-8.7-0.6-5.2-10.5-4.3-15.8c-5.6-5.9-16,1-22.9,1.1c-2,5.1-1,13.9,3.3,15.8
				c4.4,0.4,1.2-7,2.2-10.2c3.9-0.5,6.3-2.5,10.9-2.3c2.4,2.8,2.4,8.1,2.2,13.6c-4.8,2.6-12.5,2.1-17.5,4.5
				c-4.9-8.1-5.6-20.5-7.6-31.7C469.3,168,477.6,164.5,488.8,164z"/>
			<path d="M477.9,446.9c5.9,0.4,8,4.5,15.3,3.4C492.2,456,479.2,451.3,477.9,446.9z"/>
			<path d="M489.8,458.2c0.3,6.8-11.4-0.9-15.3-3.4C480.7,454.9,486.4,458.6,489.8,458.2z"/>
			<path d="M486.6,463.8c3.1,1.5-0.5,5.4-2.2,5.6c-4.1-2.1-10.9-1.5-13.1-5.6C477.1,463.1,484.6,470.8,486.6,463.8z"/>
			<path d="M476.8,127.9c2.6,9.2,8.7,19.9,7.6,29.4c-9.3,2.8-17.4,6.8-28.3,7.9c-2.4-9.5-7.7-16.1-8.7-27.1
				C456,133.4,465.2,129.3,476.8,127.9z M474.6,143.7c-4.5-1.3-14.4,1.5-17.5,5.6C461.6,150.6,471,147.2,474.6,143.7z"/>
			<path d="M477.9,481.9c8.7,10.6-14.3,14.2-14.2,2.3c2.4,2.1,4.2,4.7,7.6,5.6C475.2,489,478.6,487.6,477.9,481.9z"/>
			<path d="M474.6,496.7c0.7,15.1-21,11.9-16.4,0.1c-0.2,7.3,10.5,10.7,13.2,4.4c-1.8-4-7.6-8.1-12.5-5.9c0.1-0.3,0.3-0.6,0.5-0.8
				c2.6-2.9-2.5-4.9-6.5-4.5C458.9,481,465.9,497.1,474.6,496.7z"/>
			<path d="M472.4,478.5c-0.6,0.9-1.1,1.8-1.1,3.4c-0.7-0.7-5.2-2.6-5.4,0C463.2,480.2,469.9,475.1,472.4,478.5z"/>
			<path d="M458.3,495.5c0.2-0.1,0.4-0.2,0.6-0.3c-0.3,0.5-0.5,1-0.7,1.5C458.1,496.3,458.2,495.9,458.3,495.5z"/>
			<path d="M455,513.6c4.2,3.2,5.9,10.9,1.1,14.7C442,532.8,439.2,509.3,455,513.6z M457.2,526.1c3.6-6.7-5.5-12.9-12-9
				C444.9,524.4,449.9,526.4,457.2,526.1z"/>
			<path d="M431.1,110.8c7.1-7.9,26.4-27.8,31.6-7.9c-3.8,7.7-14.3,8.6-19.6,14.7c1.4,4.8,3.5-1,7.6,0c6.3,5.9,5,17-5.4,16.9
				C440.7,126.5,436,118.5,431.1,110.8z"/>
			<path d="M403.8,215c0,2.1,2.9,6.6,0,7.9c0-3.4,0.1-6.9-3.3-6.8c1,12.5-0.4,37.3,13.1,40.7C418.3,242.3,411.8,223.5,403.8,215z
				 M334.1,120.2c-0.3,4.8,3.3,5.7,4.4,12.2c7.8-1.1-0.1-15.7-3.3-12.5C340.1,120.6,334.1,123.5,334.1,120.2z M436.5,342.8
				c8.5,15.3,13.6,34.2,10.9,61.1c-1.2,5.6-3.7-4.5-7.6-3.4c-1.8,1.2-1.2,4.8-2.2,6.8c-6-8.1-11.3-16.9-17.5-24.9
				c-3,2.5-2.3,8.9-3.3,13.6c-6.7-6.5-11.6-15.1-17.5-22.6c-2.8,1.3-3.2,5-3.3,9c-6.7-4.8-8.9-14.2-14.2-20.4
				c-1.9,1.8-3.2,4.3-4.3,6.8c-4.2-5.5-8.3-11-10.9-18.1c-2.7-0.2-3.4,1.8-4.3,3.4c-3.2-2.7-5.4-6.5-6.5-11.3
				c-6.2,0.1-8,7.8-14.2,4.5c-2.4,6.9-0.4,18.4-1.1,27.1c-5.5,6.4-11.4,12.2-16.4,19.2c-39.6,0-79.1,0-118.7,0
				c-6.9-6.4-13.6-13.1-19.6-20.4c-1.2-8.9,3.1-23.5-3.2-27.1c-2.6,6.8-0.4,18.5-1.1,27.1c8.4,7.9,16.1,16.4,25,23.8
				c38.5,0,76.9,0,115.4,0c8.3-8.7,22.1-17.2,24-32.6c0,3.7,0,7.4,0,11.1c-11.3,13.9-17.5,33.1-39.2,36.2c0.5,4,8.5,10,15.3,11.3
				c0.5,3.2-5.9-0.9-5.4,2.3c1.2,2.6,6.8,0.4,9.8,1.1c0.7,5,0.3,8.7,0,14.7c14.6-0.3,25.8-4.1,32.6-12.5c-3-1.5-8.6,3.8-14.2,3.4
				c4.9-5.4,11.4-9.3,14.2-16.9c-1.8-1.1-7.6,2.5-13.1,4.5c-3.3,1.2-13.6,4.5-7.6,2.3c8.5-4.3,18.8-6.8,25.1-13.6
				c-0.2,6.2-8.7,13.6-12,20.4c4.7-1.2,8.9-2.9,12-5.6c-1,10.3-14.7,17.2-27.2,19.2c6.1,7,0.6,20.4,0,30.6
				c-6.9-0.7-11.7-3.7-19.6-3.4c-2.7,3.6-4,8.7-5.4,13.6c-5.2-0.7-7.7-4-12-5.6c-5.4,1.2-5.7,7.6-8.7,11.3c-4.8-1.8-8.2-5-12-7.9
				c-4.9,2.4-7.7,7.1-12,10.2c-5.1-1.8-7.4-6.6-12-9c-4.3,2-6.9,5.6-10.9,7.9c-3.9-2.8-5.9-7.5-8.7-11.3c-5.6,0.9-7.9,5.4-14.2,5.6
				c-1.8-5-3.8-9.6-7.6-12.5c-5,1.2-11,1.4-15.3,3.4c-3.5-7.2-8.3-21.7-4.3-29.4c-10.9-3.7-20.2-9.2-26.1-18.1
				c5.4-1,13.3,7,19.6,5.6c-3.3,3-9.4-0.8-12-2.3c1.8,7.3,20.1,16.5,30.5,11.3c0.5-3.2-4.1-5.7,0-6.8c-0.7-1.5-2.3-2.1-4.3-2.3
				c0.4-1.5,2.7-1,4.3-1.1c-0.4-1.4-1.4-2.3-3.2-2.3c3-1.8,7.2-2.3,12-2.3c-9.5-1.9-21.6-0.9-29.4-4.5c-3.7-4.9,4.5,0.7,6.5,1.1
				c16.6,3.1,28.5-2.3,34.8-12.5c-8.4-3-20.3,1.5-29.4-1.2c-11.4-3.2-17.6-19-26.1-23.8c-0.7-10.6,1.3-24.1-1.1-32.8
				c-2.1,6.8-3.7-1.4-6.5-3.4c-3.8,6.2-6.5,13.6-8.7,21.5c-4.5-0.2-2.6-7-6.5-7.9c-4.4,7.2-8.7,14.4-12,22.6
				c-2.6-2.9-2.1-9.2-4.3-12.5c-7.2,7.3-11.4,17.6-16.4,27.1c-2.6-3.3-2.4-9.5-3.3-14.7c-8.1,5.6-11.9,15.6-17.5,23.8
				c-3.2,0-1.4-5.4-3.3-6.8c-3.4,0.7-2.9,5.4-6.5,5.6c-6.5-22.9-0.3-49.3,8.7-63.4c-1.6-4.5-4.5,4.8-5.4,1.1
				c-0.4-6.5-3.1-13.2-2.2-19.2c0.7-4.7,5.9-8.1,6.5-12.5c1.2-8-4.3-15.8-3.2-23.8c1.2-8.7,9.2-14.7,10.9-22.7
				c-8.9-4.9-5.7-32.9,2.2-39.6c-10.4-14.7,1.4-40.1,9.8-50.9c-5.4-12.8,4.5-24.1,7.6-35.1c-0.1-1.3-2-1-3.3-1.1
				c4.3-9.9,9.2-19.1,20.7-21.5c0.4-6.2,9.2-10.9,19.6-10.2c20.2-21.3,46.6,6.1,28.3,29.4c3.2,15.2,5.9,24.3,15.3,32.8
				c5.4,0,10.9,0,16.4,0c8.9-22.6,6.2-57.6,38.1-66.7c1.4-0.3,1.1-2.3,0-2.3c15,1.5,65.8,0.8,52.3,35.1c-0.8-11.8-15.8-15.7-25.1-9
				c2.3,4.8,6.5,7.6,14.2,6.8c-7.7,1.8,1.8,7.5,0,9c-7.6-3-17.8-1-19.6,5.6c1.4,8.4,4.5,15,7.6,21.5c12.7,0,25.4,0,38.1,0
				c10.3-7.9,9.8-20.2,16.4-30.5c-5.9-16.8-10.6-37.4,6.5-43c26.8,6,50.7,15.3,63.1,36.2c-4,1.6-3.1,5.5-1.1,9
				c-2.4,2.4-1.8-7.8-6.5-6.8c-3.8,12-2.9,32.6,7.6,38.5c2.4-2.8,4.6-5.8,5.4-10.2c-0.3,5.6,4.3,13.5-2.2,16.9
				c4.7,11,2.6,28.9,14.2,32.8c-2.7,13,6.7,13.4,6.5,23.8c-6.9-7.2-9.5-18.8-16.4-26c-0.4,6.4,3.2,8.7,3.3,14.7
				c-2.6-1.9-2.8-6.2-4.3-9c-0.4,11,3.7,39.1,14.2,35.1c-2.8,10,3,19,6.2,29c-6.3-7.3-9.4-23.6-16.1-26.8c0.7,3.4,4.4,9.8,2.2,12.5
				c-1.4-3.4-1.2-8.6-4.3-10.2c-0.4,14.9,7.4,35.6,18.5,38.4c0-4.3,0-8.7,0-12.9c2,6.7,2.6,13.8-1.1,22c5.4,10.6,9.6,22.4,8.7,39.6
				C439.7,346.2,438.8,343.8,436.5,342.8z M443,394.8c5.9-26.1-2.9-43.6-15.3-56.5c-1.4,3.4,3.7,5.8,1.1,6.8c0.3-2-4.3-4-3.3,0
				c1.3,8.4,9.2,16.1,10.9,27.1C438.1,383.3,434.6,392.9,443,394.8z M437.6,332.6c3.5-16.1-5.6-26.8-12-36.2
				c-1.2,5.8,5.4,9.5,2.2,13.6c-1.5-4.5-2.2-9.8-5.4-12.5C422.3,310,426.7,327.6,437.6,332.6z M434.3,394.8
				c2.1-21.5-4-32.2-9.8-44.1c-3-6.2-6.1-14.2-10.9-14.7c1,0.7,3.4,5.3,1.1,5.6c-1.3-2.8-1-7.3-4.3-7.9
				C410.5,357.7,420.3,381.5,434.3,394.8z M423.4,337.2c6.8-12.8-4.3-30.1-10.9-39.6c-1.2,4,3.3,7.8,1.1,9
				c-3.1-3.2-1.8-10.9-5.4-13.6C409.4,311.6,409.2,331.9,423.4,337.2z M417.9,297.6c5.1-14.4-4-29.6-10.9-38.4
				c-1,4.1,4.3,7.6,1.1,10.2c-2.6-4.1-2.1-11.4-6.5-13.6C404.6,272.2,405.3,291,417.9,297.6z M411.4,382.4
				c6.2-18.1-4.8-35-10.9-47.5c-1.2,2.9,3.3,5.4,0,6.8c-1.1-4.9-1.6-10.4-4.3-13.6C394.9,352.8,398.4,372.6,411.4,382.4z
				 M410.4,213.8c5.9-9,1.2-25.8-4.3-32.8c0.5,4.8,3.8,12.6,2.2,15.8c-2.1-5-2.1-12.1-4.3-16.9C403.6,189.2,402,209.6,410.4,213.8z
				 M406,331.4c5-6.5,2.3-23.8-3.2-29.4c-1.2,5.4,3.4,10.8,0,14.7c-1.6-7.3,1.2-19.4-5.4-21.5C397.3,310.4,394.9,327.9,406,331.4z
				 M402.8,294.1c4.8-9.5-1.7-23.9-5.4-31.7c-1.8,6,4,10.1,1.1,13.6c-1.7-6.2-2.2-13.6-5.4-18.1C395.2,271,393.7,288,402.8,294.1z
				 M374.5,119.9c4.6,9.5,16.9,17.2,30.5,13.6C399,123.9,387.5,115.4,374.5,119.9z M397.3,256.8c6.5-8.4-0.3-19.9,0-31.7
				c-8.2,2.1,2.6,14.8-2.2,20.4c-2-9.2-1.3-21.3-6.5-27.1C390.1,232.7,386.1,252.6,397.3,256.8z M394,217.2
				c10-2.9,8.9-24.1,3.2-31.7c-4.8,0.7,2,10.3-2.2,13.6c-2.8-3.9,1.7-15.3-4.3-15.8C389.7,195,387.8,210.1,394,217.2z M396.2,182.1
				c5.5-8.4,1.7-27.3-5.4-32.8c-1.5,5.8,4.5,9.6,1.1,13.6c-1.4-5-1.3-11.4-5.4-13.6C386.8,163.3,387.8,176.6,396.2,182.1z
				 M390.7,325.8c4.8-4.5,3.7-18.4,2.2-26c-5.7-1.4-1.3,7.6-4.3,9.1c0.1-4.6,0.2-9.2-1.1-12.5c-1.1,0-2.2,0-3.3,0
				C383.6,309.6,379.4,322.4,390.7,325.8z M391.8,369.9c4.8-11.1,0.2-27.8-2.2-38.5c-4.8-1.6,0,6.7-3.3,6.8
				c-2.8-2.1,1.4-11.2-4.3-10.2C377.4,344.9,380.2,363.7,391.8,369.9z M390.7,293c5.4-9.6,0.5-25.2-4.3-34c-4.4,4.3,3.2,11.7,0,14.7
				c-2.3-3.3-0.4-10.9-4.3-12.5C383.3,273.6,380.5,290.1,390.7,293z M395.1,148.2c-0.4-14.3-15.3-19.6-24-21.5
				c1.2,0.3,2.6,1.8,1.1,2.3c-0.7-1.5-2.3-2.1-4.3-2.3C372.9,138.1,382.2,145.1,395.1,148.2z M379.9,218.4
				c4.8-6.7,8.2-14.8,6.5-28.3c-7-1-2.4,10.3-5.4,13.6c-0.5-5.1,1.1-12.5-1.1-15.8c-1.4-0.1-1.5-1.5-3.3-1.1
				C376,197.1,368.4,214.9,379.9,218.4z M383.1,185.5c5.7-7.3,2.6-23.1-4.3-27.1c-1.4,2.8,3.2,4.7,0,5.6c-0.4-2.6-1.1-4.8-3.3-5.6
				C372.8,168.9,375.8,181.9,383.1,185.5z M383.1,255.7c6.6-5.2,2.9-26.1,0-35.1c-2.9,1.9-1.1,8.7-3.3,11.3c0.1-3.4,0.7-7.5-3.3-6.8
				C377.4,236.8,373.4,253.3,383.1,255.7z M382,157.3c0-3.7,0-7.6,0-11.3c-8.6-6.1-13.6-11.7-20.7-11.3
				C365.1,145.4,372.2,152.8,382,157.3z M382,115.4c0-4.6-9.1-5.6-12-3.4c0.7,0.1,1.3,0.1,1.1,1.1c-1.3,0.1-3.1-0.2-3.3,1.1
				C371.3,115.7,377.9,118.3,382,115.4z M373.4,319c9.4,0.1,8.5-21.9,5.4-27.1c-1.8,3-1.9,7.8-4.3,10.2c-0.2-2,1.1-5.6-2.2-4.5
				C370.7,306.1,369.2,312.5,373.4,319z M370.1,356.4c9-3.4,7.8-17.5,7.6-30.6c-6-1-2.9,7.5-5.4,10.2c-0.4-5.1,1.1-12.5-1.1-15.8
				c-5.4,4.6-5.1,15.1-7.6,22.7C366.1,346.9,368.7,351,370.1,356.4z M374.5,290.7c10.9-4.2,5.6-29.2,0-36.2
				c-0.7,3.1,1.4,8.9-1.1,10.2c-0.7-2.3,1.3-7.4-1.1-7.9C371,268.3,368.7,284.4,374.5,290.7z M364.6,219.5c5-6.1,9.4-12.9,7.6-26
				c-3.7-0.4-3.3,3.4-5.4,4.5c-0.9-2.9,2.1-9.8-2.2-9C363.7,199,356.5,213.1,364.6,219.5z M371.2,164c-0.5-3.6,2-4,1.1-7.9
				c-4-4.5-7-10.1-12-13.6C359.5,151.7,359.2,162.8,371.2,164z M371.2,122.1c1.2-6.6-7.3-9-9.8-7.9c4.5,1.4-0.2,3.6-2.2,1.1
				C362,119.6,365.2,124.3,371.2,122.1z M370.1,252.2c4.6-7.6,3.9-25.5,0-34c-3.7,3.7-2.5,12.5-4.3,18.1c-0.1-4.4,0.9-9.9-2.2-11.3
				C359.9,235.3,360.7,249.5,370.1,252.2z M370.1,187.8c4.3-4.6,4.3-16.8,0-21.5c-1.1,0-2.2,0-3.2,0c-0.7,3,3.2,7,0,9
				c0.2-3.2-0.3-5.7-2.2-6.8C364.9,176.5,362.7,187.1,370.1,187.8z M362.4,311.1c8.1-0.4,8.5-19.3,4.3-24.9
				c-2.1,2.8-1.1,8.7-3.3,11.3c0-2.3,0-4.5,0-6.8C356.8,293.7,357.1,307.4,362.4,311.1z M364.6,131.2c0-2.6,0-5.3,0-7.9
				c-3.9,0.3-4-3.4-7.6-3.4c-0.2,4.7,2.6,4.5-2.2,3.4C355.9,128.2,358,132.1,364.6,131.2z M361.3,281.7c9.8-0.7,7-24.1,2.2-29.4
				c-0.7,3.8,1.4,10.5-1.1,12.5c-0.8-4.1-0.4-9.4-2.2-12.5C359.3,262.6,353.6,275,361.3,281.7z M359.2,341.6
				c2.9-6,6.5-17.5,4.3-24.9c0.1,2-0.8,2.9-2.2,3.4c0.4-4.8,0.1-9.1-4.3-9c-2.1,8-12.8,7.1-19.6,10.2c0.7,2-1.3,6.7,1.1,6.8
				c3-4.3,6.3-1.5,8.7-6.8c0.6,1.6-1.2,5.9,1.1,5.6c3-5.8,7.3-3.6,9.8-10.2c-0.8,3.1,2.1,2.3,2.2,4.5c-7.3,4.4-13.8,9.8-26.1,9
				c0,3-0.6,6.7,2.2,6.8c3.1-6.5,5.1-0.7,9.8-1.1c2.6-0.4,2.4-3.5,4.3-4.5c0.2,0.9,0,2.2,1.1,2.3c1.7-3.2,5.8-3.7,7.6-6.8
				c-0.1,13.4-20.3,6-24,15.8c3.4,1.2,5.4,0.4,10.9,1.1c0.1-1.3-0.2-3.2,1.1-3.4c-0.1,2,0.8,2.9,2.2,3.4c1.8-2.3,2.9-5.3,6.5-5.6
				C357.1,339.3,356.3,342.4,359.2,341.6z M346.1,105.2c3.4,4.7,10.6,7.8,17.5,5.6C362.1,104.9,351.7,103.1,346.1,105.2z
				 M350.5,192.3c8.9-0.1,14.5-12,8.7-20.4c0.7,3.7-2.3,1.8-3.3,1.1c-0.6,2,1.3,6.7-1.1,6.8c-0.3-3.8-0.6-7.7-2.2-10.2
				C351.4,176.7,350.4,184,350.5,192.3z M359.2,243.2c2.8-9.7-0.2-30.6-8.7-20.4c0,9.5,0,18.8,0,28.3
				C351.6,250.9,357.5,248.9,359.2,243.2z M358.1,168.6c3.8-9.8-1.9-19-6.5-23.8c-1.2,5.5,4.9,9.2,2.2,12.5
				c-0.9-2.9-1.1-6.4-3.3-7.9C348.9,155.8,350.9,167.5,358.1,168.6z M349.4,218.4c10.4,1,11.7-19.3,8.7-24.9
				c-0.9,2.9-5.7,1.6-7.6,3.4C351.1,205.1,348.6,209.9,349.4,218.4z M357,143.7c0.1-7.7,0.8-15.9-5.4-16.9c-0.5,2.5,3.4,6.2,1.1,6.8
				c-0.3-1.6-2.4-1.3-3.3-2.3C349.7,137.7,351.9,142.1,357,143.7z M357,255.7c-3.4-0.5-4.3,1.6-6.5,2.3c0.7,4.5-1.4,12,1.1,14.7
				C354.7,268.4,356.6,262.7,357,255.7z M355.9,118.8c1.5-10.5-13-10.4-16.4-9C345.1,112.6,345.7,120.7,355.9,118.8z M350.5,305.5
				c8.9-0.8,10.3-27,2.2-28.3c-0.7,0-1.5,0-2.2,0C350.5,286.6,350.5,296,350.5,305.5z M349.4,127.9c1.4-10.5-7-10.9-10.9-15.8
				c0.9,3.7,1,2.3-1.1,4.5C341.8,119.9,341,128.7,349.4,127.9z M348.3,175.3c1.8-6.7,1.8-17.4-3.3-20.4c0.1,2.1-0.8,2.4-2.2,1.1
				c1,6.6-3.4,7.7-2.2,14.7C343.3,172.2,345.4,174.2,348.3,175.3z M346.1,151.6c4.3-7.1,3.3-16.4-2.2-21.5c-0.1,7.4-6,8.8-4.3,18.1
				C341.9,149.2,342.8,151.6,346.1,151.6z M346.1,298.7c0.1-28.8-2.1-56.5-1.1-83.7c-15.6,0-31.2,0-46.8,0
				c-2.1,2.4-0.7,8.3-1.1,12.5c5.4,1.5,1.5-6.7,4.3-7.9c13.1,0,26.1,0,39.2,0c1.4,32-2.9,69.7,2.2,97.3
				C348.7,313.8,346.1,304.4,346.1,298.7z M345,209.3c0-11.7,0-23.4,0-35.1c-50.5,0-106.6,0-153.6,0c0.2-4-0.7-6.7-3.3-7.9
				c-0.4,5.4-2.1,5.3-6.5,7.9c2.2-5.9-0.5-9.8-2.2-14.7c-1.2,3.3-1,8-3.3,10.2c-0.6-4.5,4.2-9.2,1.1-12.5
				c-2.6,5.2-4.5,13.3-2.2,20.4c2.6,3.2,2.9-5.4,6.5-1.1c0,11.3,0,22.6,0,34c18.8,0,37.8,0,56.6,0c0,10.6,0,21.1,0,31.7
				c-7.4-0.1-10,6.7-16.4,4.5c-4.5,3.3-5.9,9.6-15.3,7.9c-0.4,7.5-2.9,12.8-8.7,14.7c1.6,16.8-1.8,31.5,7.6,48.6c2.6,0,5.1,0,7.6,0
				c-1.8,2.4,2.1,6.2,3.3,9c23.8,0.4,9.1,30.9,13.1,54.3c23.6,0,47.2,0,70.8,0c-1.2-4.8,2.6-14.7-2.2-15.8c-3.2,2,1,11.6-2.2,13.6
				c-20.7-0.7-44.2,1.5-63.1-1.1c0-12.8,0-25.7,0-38.5c1-2,3.8-2.1,5.4-3.4c0,12.5,0,24.9,0,37.3c16.7,0,33.4,0,50.1,0
				c-0.3-7.6,8.7-11.1,17.5-9c2.1-2.7-0.3-10.1,2.2-12.5c2.1,1.9,2.5,5.7,7.6,4.5c3.3-4-1.5-6.8-1.1-11.3c2.1-0.9,4-1.9,6.5-2.3
				c-0.1-12.1-2.7-24.3,0-32.8c-10.6,0.6-9.2,13.8-21.8,12.5c-4,5.2-4.3,14.4-9.8,18.1c-4.5-1.8-7.1-5.5-14.2-4.5
				c-7.8-17.9-19.1-36.1-13.1-56.5c-8.1-2.6-10.6-8.4-21.8-5.6c-5.6,7.8-2.3,18.5-7.6,27.1c4,3.4,3.2,8.5,1.1,13.6
				c5.8,3.3,6.2,17,9.5,21.4c-1.5-0.9-3-0.5-5.1,0.1c-0.7-12.5-10.4-17.7-6.5-31.7c-1.8-4.9-8.5-4.7-9.8-10.2
				c3.6-5.8,0.1-7.6,0-14.7c3.9-4.3,10-6.2,14.2-10.2c9.1,4.6,19.5-4.3,22.9,6.8c2.9,0,5.8,0,8.7,0c2.5,8.3,13.9,7.4,15.3,16.9
				c7.6-4.6,13.3-11.1,18.5-18.1c-3.4-4.7-11.4-4.7-9.8-14.7c-8.5,0.5-9.1-7.2-14.2-10.2c-5.9,1-8.5-3.6-13.1-6.8
				c-5.1,2.5-9.9-1.6-14.2-3.4c15.1,4,17.2-13.1,33.7-11.3c0.7-5.3-1.4-13.6,1.1-16.9c0.7,5.3-1.4,13.6,1.1,16.9
				c5.8-1.2,2.3-11.9,3.3-18.1C309,211.1,326.5,209.6,345,209.3z M338.5,162.9c0.4-2.1,3.2-2.1,2.2-5.6c-4.8,3.7-1.8-0.1-4.3-3.4
				C334,156.5,335.7,162,338.5,162.9z M338.5,171.9c1.3-5.9-3.8-3.2-4.3-4.5c-0.1-1.8,0.1-3.9-2.2-3.4c0,2.6,0,5.3,0,7.9
				C334.1,171.9,336.3,171.9,338.5,171.9z M334.1,469.4c-0.3-6.7,4.1-14.6,1.1-20.4c-1,6.2-0.4-2.5-2.2-2.3
				c-0.1,1.3,0.2,3.2-1.1,3.4c-0.6-1.6,1.2-5.9-1.1-5.6c-1,2-0.4,5.6-2.2,6.8c-0.9-3.9,1.6-4.3,1.1-7.9c-2-3.5-3.7,3.8-5.4,0
				c0-4.5,0-9,0-13.6c-23.9,6.7-54.6,16.2-84.9,9c11.4-1.2,7.6-18.4,12-27.1c-6.5-0.7-4.3,7.7-7.6,10.2c-0.6-4.8,1.9-6.3,2.2-10.2
				c-9.3,3.3-13.3,21-14.2,26c-1.9-1-5.4-0.4-6.5-2.3c7-5.1,9-15.5,13.1-23.8c-2.3-0.3-5.3,2.1-6.5,2.3c0.2-0.1,1.9-2.2,1.1-2.3
				c-5.9-0.7-15,10-15.3,20.4c1.8,1.5,5.6,1,6.5,3.4c-6.8-0.4-10.1-4.5-17.5-4.5c0,6.4,0,12.8,0,19.2c30.3,15.8,86.8,13.9,117.6,0
				c1.5-0.7,0.1-4.3,2.2-4.5c1.2,8.7-8.7,6.1-12,10.2c8.4,3.7-5.4,2,7.6,4.5c-1.9,0.7-6.4-1.4-6.5,1.1c1.1,2.6,7.8-0.5,8.7,2.3
				c-1.6,0.6-5.6-1.3-5.4,1.1C324.4,466,328.1,468.9,334.1,469.4z M333,270.3c-3-5.9-3.2-7.6-1.1-14.7c-2.3-3.6-7.5-6.7-4.3-12.5
				c-5.9-2.1-11.7-4.5-13.1-11.3c-16.1-4-22.7-3.9-39.2-2.3c-3.1,4.7-9.5,5.9-13.1,10.2c8.3-1,9.6,11.1,17.5,6.8
				c-2.1-3.4-6.3-4.8-7.6-9c3.7-0.3,5.2-2.9,9.8-2.3c0.2,2-1.1,5.6,2.2,4.5c0.2-0.9,1-1.3,2.2-1.1c0.8-3.5-3.7-1.4-2.2-5.6
				c4,0.7,6.3-3.5,8.7-1.1c-1.7,2.8-0.3,8.8-2.2,11.3c5.6-0.1,4.2-5.9,3.3-10.2c10.3-3.4,4.1,9.6,9.8,6.8c-1.5,0-1.4-3.2,0-3.4
				c3.9,0.1,7.5,0.5,8.7,3.4c-2.1,2.8-5.6,4-4.3,10.2c4.5,2.5,8.1-1,14.2,0c1.9,3.7,4.1,7,3.3,13.6c-2.6,2.1-5.7,3.8-9.8,4.5
				c2.1,4-0.4,6.2-2.2,9c3.7,2.9,8.3,0.2,9.8,3.4c-1.2,3.3-1.3,7.6-5.4,7.9c-1.5-2.2-6.2-7-8.7-4.5c2.9,2.6-1,7.7-4.3,4.5
				c0.2,3.6,5.3,8,7.6,5.6c-3.1-1.5,0.5-5.4,2.2-5.6c9.1,4.5-3.8,12.3-8.7,15.8c0.5-6.2-3.3-7.9-7.6-9.1c-1.9,4.8,5.2,5.4,4.3,11.3
				c-0.8,5.8-8.7,11.1-14.2,6.8c-0.3,8-5.9,10.5-13.1,11.3c0,3-0.4,6.5,1.1,7.9c11.1-4.3,19.1-11.8,31.6-14.7
				c-0.5-7.3,4.9-8.4,8.7-11.3c-4.8-6.5,4.3-8.4,8.7-9c-0.1-3.7-1.8-5.6-1.1-10.2c1.7-1.6,4.3-2.4,6.5-3.4
				C328.3,278.3,328.6,273.6,333,270.3z M321.1,258c-2.6-5.3-8.2,1.8-12,2.3c-1.5-1.5-0.7-5.4-2.2-6.8c-9.8-0.1-13.6-8.7-22.9-3.4
				c-0.5,3.5,1.5,4.4,2.2,6.8c7.7-1.3,13.9,3.9,19.6,7.9c0.4,5.4-2,7.8-1.1,13.6c-2.6,2.5-5.9,4.5-9.8,5.6c0.1,2.8,0.1,5.4-1.1,6.8
				c-3.4-0.6-3.9,2.1-7.6,1.1c0.3,7.1-4.5,8.9-10.9,9c-0.5,4.8-3.2,7.2-8.7,6.8c4.8,3.5-1.9,11.9,4.3,13.6
				c-4.2-13.3,10.3-15.3,17.5-20.4c1.8,4.3,2.9,9,8.7,9c0.2-6.2-5.1-6.7-7.6-10.2c9.8-9.5,23-19.9,20.7-38.4
				C314.7,261,320.5,262.2,321.1,258z M314.5,466.1c-3.7-0.8-1.8,4.2-4.3,4.5c-0.9-2.9,4.3-5.2,1.1-6.8c-0.5,1.3-1.2,2.6-2.2,3.4
				c-0.1-3.6,2.9-3.8,2.2-7.9c-1.2-0.2-1.7-1.2-2.2-2.3c-4.9,1.7-11.1,2.1-15.3,4.5c1.6,1.3,4.5,1.4,5.4,3.4
				c-2.1,0.2-2.4-1.2-4.3-1.1c-0.7,4.2,4.6,2,5.4,4.5c-1.9,0.1-3.4-0.2-4.3-1.1c-0.4,4.2,5.3,2.1,5.4,5.6c-1.9,0.7-4.5-3.3-5.4,0
				c6,1,7.8,6.3,14.2,6.8C311.7,475.2,313.1,470.7,314.5,466.1z M306.9,129c0.4-15.9-17.6-12.6-26.1-19.2
				c-24.3-1.2-44.8,1.7-49,21.5c7.3,0.7,7-6.4,10.9-9c-0.4,5-8.1,11.6-2.2,15.8c3.8-1.7,2.6-8.6,6.5-10.2c-0.5,5.1-6.2,9.5-3.2,14.7
				c4,1.2,3.1-2.8,6.5-2.3c-0.6,2.5-2.6,7.3,1.1,7.9c1.6-1.7,3.2-3.4,4.3-5.6c-8.3-1.1-2.9-10.1-7.6-15.8c4.9,0.6,2.9-6,7.6-5.6
				c-10.1,13.4,6,23.9,16.4,29.4c-6.7-0.1-10.5-3.4-16.4-4.5c2.1,8.1,9.6,4,15.3,9.1c4-6.4,7.3-13.5,18.5-12.5
				c-1.9-5.9-9.6-5.9-10.9-12.5C285,122.8,298.9,123.8,306.9,129z M304.7,434.4c18-2.6,4.4-21.1-6.5-22.6c0.4,4.8,4.8,5.6,5.4,10.2
				c-4.4-1.5-4.9-13-10.9-9C297.4,419.4,298.5,429.6,304.7,434.4z M299.3,435.6c-2.4-9.9-5-19.7-13.1-23.8
				c-0.7,4.3,4.4,8.1,2.2,10.2c-3-3.3-1.2-11.7-8.7-10.2c1.8,9.1,3.9,17.8,6.5,26C291.9,438.4,294.3,435.6,299.3,435.6z
				 M289.5,470.6c3.9-1.6,1-7,1.1-9c-4.8,0.3-8.4,1.8-14.2,1.1c1.2,5.6,2.6,7,7.6,10.2c-3.3,1.5-5.6-3.9-6.5-1.1
				c2,1.8,8.5,4.6,6.5,6.7c-2.3-0.7-3.5-2.3-5.4-3.4c2.3,4.4,6.5,6.8,10.9,9C292,478,294.2,471.5,289.5,470.6z M287.3,311.1
				c-1.5-0.3-1.8-1.8-3.3-2.3c-0.1,4-7.1,0.9-8.7,3.4c0.8,4,2.1,7.6,7.6,6.8C281.4,313.2,286.3,314.2,287.3,311.1z M273.2,438.9
				c3.7,0,7.3,0,10.9,0c-1.8-10.9-4-21.5-9.8-28.3c-0.9,2.9,3.3,6.2,0,7.9c-1.5-1.9,0.4-7.2-3.2-6.8
				C271,421.6,272.1,430.3,273.2,438.9z M278.6,173.1c0.3-2.9-0.4-4.8-3.2-4.5c-0.1,1.3,0.2,3.2-1.1,3.4c-0.7-3.7-3.2-4-4.3-4.5
				c-0.1-0.7-0.1-1.3-1.1-1.1c-0.1,2.8-0.1,5.4,1.1,6.8C272.8,173.1,275.7,173.1,278.6,173.1z M275.3,474c-2.5-1.5-4.1,2.9-4.3,0
				c1.9-1,3.4-2.6,4.3-4.5c-5.5-0.7-0.4-0.2-1.1-6.8c-5.3,0.5-12.8-1.2-16.4,1.1c-0.6,4,3.9,2.8,3.3,6.8c-1.5-0.3-1.8-1.8-3.3-2.3
				c-1,3.7,6.1,4.9,3.3,6.8c-2.1,0.6-2.5-6.2-4.3-2.3c1.2,1.7,3.2,2.8,3.3,5.6c-1.5,0.1-3.3-4.6-4.3-1.1c6.2,6.7,12.6,16.5,17.5,2.3
				c-0.9-0.2-2.1,0-2.2-1.1C272.9,477.5,274.4,476,275.3,474z M274.2,165.2c1.8-2.7,2.6-5.4,0-7.9c0,1.1,0,2.3,0,3.4
				c-1.4-0.1-1.5-1.5-3.2-1.1C270.5,163.1,272.3,164.2,274.2,165.2z M260.1,440c3.6,0,7.3,0,10.9,0c-0.8-10-0.1-21.8-4.3-28.3
				c-2.9-0.8,0.8,5.4-2.2,4.5c-0.2-1.7,0.4-4.2-1.1-4.5C262.3,420.6,259.5,433.2,260.1,440z M268.8,164c0-2.3,0-4.5,0-6.8
				c-1.9,0.1-3.4-0.2-4.3-1.1c-0.7,4.2-2.1,7.8,2.2,9C266.9,164.3,267.5,163.9,268.8,164z M265.6,171.9c0.9-5.1-1.9-6.3-5.4-6.8
				C259.5,170.8,261.5,174.3,265.6,171.9z M261.2,160.6c-0.6-1.6,1.2-5.9-1.1-5.6c0,1.1-1.9,1.4-2.2,0c-0.1-0.7-0.1-1.3-1.1-1.2
				c-1.8,3.4-2.9,7.3,1.1,9C258.2,161.3,260.3,161.6,261.2,160.6z M256.8,440c1.2-8.2,4.8-19.9,2.2-28.3c-1.6,4.8-1.7,11.1-4.3,14.7
				c-1.1-5,4.9-13.1,0-14.7c-2.1,9.2-5.4,17-6.5,27.1C250.7,439.6,253.1,440.6,256.8,440z M252.5,171.9c1.8,0,3.6,0,5.4,0
				c-0.7-2,1.3-6.7-1.1-6.8c-1.6,4.5-1.7,0.2-3.3-1.1C252,166.9,250.9,168.5,252.5,171.9z M250.3,468.3c3.2-0.5,5-2.4,5.4-5.6
				c-14.9-2.5-15.3,2.6-12,11.3c-1.5,0.6-2.6-4.4-3.3-1.1c1,0.3,3.7,4.3,1.1,4.5c0.1-2-0.8-2.9-2.2-3.4c-0.8,5.7,3,6.7,3.2,11.3
				c10-1.8,8.7-7.7,12-12.5c-3.9-2-5.6,3.8-6.5,1.1c1.5-2.6,5.4-2.6,6.5-5.6C252.6,467.2,251,471.7,250.3,468.3z M249.2,160.6
				c5.8,1.8,6-10.2,3.3-10.2c-0.2,0.9,0,2.2-1.1,2.3c-0.2-0.9,0-2.2-1.1-2.3c-1,2.4-2.9,3.9-2.2,7.9
				C249,158.7,249.3,159.3,249.2,160.6z M250.3,164c-2.9-0.4-3.8-2.9-6.5-3.4c-1.3,3.2-1.3,7,0,10.2
				C248.7,171.4,249.7,168,250.3,164z M247,155c-0.7-2.3,1.3-7.4-1.1-7.9c-0.5,1.3-1.2,2.6-2.2,3.4c-1-2.1,3.2-3.7,0-4.5
				c-1.3,2.9-5.4,7.2-2.2,11.3C244.3,157.4,244.9,155.4,247,155z M241.6,173.1c0.9-4.3-5.2-4.3-4.3,0
				C238.6,173.1,240.1,173.1,241.6,173.1z M239.4,166.3c0.8-2.6,1-5.8,2.2-7.9c-5.1,0.1-2.3,0.5-5.4-3.4c-1.1,2.9-4,7.8-1.1,11.3
				C236.5,166.3,238,166.3,239.4,166.3z M232.8,152.7c5.4,0.2,8.2-8.1,6.5-11.3c-0.3,1.2-1.8,2.7-2.2,1.1c1.1,0,1.4-2,0-2.3
				C235.9,144.6,231.5,145.5,232.8,152.7z M238.3,466.1c-2.5-1.5-4.1,2.9-4.3,0c0.9-2.5,5.1-1.5,5.4-4.5c-4.3-1.5-10-1.6-15.3-2.3
				c-0.8,2.9,4.3,5.2,1.1,6.8c-0.4-2.6-1.1-4.8-3.3-5.6c0.6,5.4,1.4,4.5-2.2,2.3c-0.6,3,4.5,5.7,1.1,7.9c0.3-2.6-0.3-4.3-2.2-4.5
				c0.7,5.7,2.8,10,4.3,14.7c8-2.6,10.2-6.3,14.2-11.3c-2.8-0.9-5,4.4-6.5,1.1C233.1,468.9,236.6,468.4,238.3,466.1z M235,136.9
				c-1.9-0.4-2.8,1.7-3.3,0c1.1,0,1.4-2,0-2.3c-1.8,4.1-6.2,5.6-6.5,11.3c2.1,0.5,2.7,2.4,5.4,2.3
				C232.3,144.7,234.3,141.4,235,136.9z M232.8,214.9c-17.1,0-34.1,0-51.2,0c0,1.1,0,2.3,0,3.4c0,23.7,0,51.7,0,74.7
				c0,7.4-2.6,18,3.3,22.7c2.6-29.8,0.4-64.5,1.1-96.1c14.5,0,29,0,43.6,0c0.1,8.1-0.9,17.5,2.2,22.7
				C234.2,235.1,232.3,223.7,232.8,214.9z M225.2,162.9c6.1,1,6.7-3.5,6.5-9c-6,2.8,0.1-2.4-4.3-2.3
				C225.9,155.1,223.2,158.7,225.2,162.9z M228.5,173.1c1-2.4,3.3-3.4,3.3-6.8c-4.2,1.2-3.4,3-5.4-1.1c-0.7,3.1-4.5,2.8-4.3,6.8
				C223.2,173.3,225.8,173.3,228.5,173.1z M216.6,459.3c-1.6-0.2-4,0.4-4.3-1.1c2.1-0.1,3.7-0.7,4.3-2.3c-4.4-3-13.6-0.9-12-10.2
				c-6.2,1.2-5.8,8.9-9.8,5.6c1.3,7,2.2,14.4,4.3,20.4c6-0.6,9.7-3.5,15.3-4.5c1-5.3-2.9,1.5-3.3-2.3c0.7-1,7.1-1.5,3.3-3.4
				c0.8,1.8-5.1,1.8-4.3,0C212.8,461.5,215.2,460.9,216.6,459.3z M196.9,337.2c0-2.3,0-4.5,0-6.8c-14.3,1.7-18.5-7.2-28.3-10.2
				c0,2.3,0,4.5,0,6.8c5.5,0.7,10.6,6.5,17.5,9C189.3,332.4,193,333.9,196.9,337.2z M194.8,327c-2.4-0.1-0.4-4.8-1.1-6.8
				c-11.6,1.5-14.9-5.6-22.9-7.9c0,2.3,0,4.5,0,6.8c5.2,0.2,4.6,4,8.7,2.3c-0.9,4.3,2.3,4.4,4.3,5.6c0.6-1.6-1.2-5.9,1.1-5.6
				c2.3,3.6,1.5,5.1,5.4,2.3C189.1,327,194.1,329.4,194.8,327z M190.4,343.9c2.6-3.5,0.7-0.4,4.3,0c-0.2-8.6-19.7-6.6-25-13.6
				c0,1.9,0,3.7,0,5.6c7.6-1.5,7.5,5.9,14.2,7.9c0.2-1.7-0.4-4.2,1.1-4.5C183.9,343.9,188.1,342.9,190.4,343.9z M183.9,134.6
				c3.7-5.4,4.5-10.5,2.2-14.7C184.8,123.7,178.3,130.9,183.9,134.6z M183.9,165.2c3.8-0.3,6.4-7.4,1.1-7.9
				c-0.1,1.4-0.3,2.6-2.2,2.3C181.9,162.7,184.3,162.4,183.9,165.2z M174,130.1c11.1-1.3,10.1-13.4,9.8-15.8
				C180.5,119.4,172.6,119.9,174,130.1z M182.8,110.8c-5.9-2.2-17.4,3.1-14.2,10.2C177.4,121.8,179.8,116.1,182.8,110.8z
				 M177.3,153.8c11.5-0.6,3.8-16.1,1.1-21.5C174.8,139.2,172.9,146.6,177.3,153.8z M177.3,109.7c-1.1-3.8-6.4,0.7-1.1-4.5
				c-5.7,2-13.8,1.5-15.3,7.9C168.2,116.3,170.5,110,177.3,109.7z M168.6,145.9c3.2-1.7,7.8-7.6,4.3-12.5c-4,5.9,0.3-3.4-2.2-4.5
				C167.1,132.8,165,140.3,168.6,145.9z M168.6,192.3c-0.7-4.5,0.6-6.9,4.3-6.8c-0.3-5,1.1-11.7-3.3-12.5c-0.7,2.7,1.4,8.2-1.1,9
				c0-1.9,0-3.7,0-5.6c-3.5,1-2.3,1-4.3-1.2C162.8,181.3,161.7,191.8,168.6,192.3z M166.5,170.8c9.8-1.5,8.3-20.3,4.3-23.8
				C168.8,155.1,161.5,161.9,166.5,170.8z M166.5,347.3c1.6-1.3,1.3-4.7,4.3-4.5c-7.4-4.5-6.2-20.2-5.4-27.1
				c-2.6,1.8-1.2,7.8-3.2,10.2c-1.5-0.7-0.1-4.3-2.2-4.5C161.7,330.4,160.5,342.6,166.5,347.3z M169.7,271.5
				c-0.6-3.9,1.6-10.7-2.2-11.3C167.7,264.6,168.1,268.7,169.7,271.5z M169.7,308.8c-1.3-8.1,2.8-21.7-2.2-26
				C166.6,289.9,166.8,302.4,169.7,308.8z M169.7,219.5c-2-5.4-0.7-14.3-1.1-21.5c-2.1,0.2-2.4-1.2-4.3-1.1
				C165.7,204.8,163.8,216.2,169.7,219.5z M168.6,253.4c-1.2-9.6,2.6-24.6-2.2-30.6C165.5,231.1,162.8,248.6,168.6,253.4z
				 M169.7,125.6c-4.3,1.5-4.8,1-2.2-2.3c-4-0.7-4.2,2.4-7.6,2.3c0,2.6,0,5.3,0,7.9c1.8,0,3.7,0,5.4,0
				C167.1,131.1,168.5,128.4,169.7,125.6z M165.4,152.7c-4.4,0.9,0.7-5.1-2.2-7.9c-3.4,7-11.3,9.4-9.8,21.5c3.4,0.6,3.8-2.1,7.6-1.1
				C162,160.6,165.1,158.1,165.4,152.7z M163.2,286.2c6.8-7,3-20.4,0-29.4c0,1.8-3,3.7-2.2,0c-0.1-0.7-0.1-1.3-1.1-1.1
				C157.8,262.5,153.8,284.5,163.2,286.2z M162.1,315.6c6.3-4,3.7-13.9,1.1-20.4c-4.6-1.8-0.1,5.9-3.3,5.6c-0.1-4,0.8-9.1-3.3-9
				c-2.9,6.1,1.5,13.3,0,21.5C158.7,313.8,159.4,315.8,162.1,315.6z M165.4,117.7c-7.3,2.9-0.1-1.8-4.3-2.3
				c-1.5,1.8-3.7,2.9-6.5,3.4c0.9,3.2-1.5,2.9-1.1,5.6C158.9,127.1,162.8,121.6,165.4,117.7z M161,222.8c5.4-7,1.2-22.7-2.2-30.5
				c-2.5,1.2,0.5,8.1-2.2,9c0.3-2.9-0.4-4.8-3.3-4.5C152.3,209.2,154.3,218.5,161,222.8z M156.7,256.8c6.5-5.2,8.4-19.3,3.3-28.3
				c-1,3.4,2.3,11.4-2.2,11.3c0.2-7.8,0.4-15.5-4.3-18.1C153.3,233.2,149.2,250.5,156.7,256.8z M163.2,136.9c-3.7,0.2-3.3,3.7-5.4,0
				c-4.8,3.7-8.3,8.7-14.2,11.3c0,3.7,0,7.6,0,11.3C153.6,155.6,159.5,147.4,163.2,136.9z M154.5,191.2c7.7-1,6.5-15.4,4.3-20.4
				c0.1,3.5-0.5,6.3-2.2,7.9c-1.2-3.6,4.3-9.5-1.1-10.2C151.1,174.8,150.3,184.2,154.5,191.2z M156.7,129c-1.8-0.4-2.8,1.7-3.3,0
				c0.7-0.1,1.3-0.1,1.1-1.1c-10.2,4.8-21.5,8.6-22.9,22.7C144,147.5,152.8,140.8,156.7,129z M154.5,362c8.1-9.2,6.7-25.7,0-36.2
				c-2.9,3,0.8,12.9-2.2,15.8c-0.4-4.9-0.7-9.9-4.3-11.3C147.9,343.2,146.4,357.6,154.5,362z M151.2,295.3c5-6.5,4.3-25.8,1.1-34
				c0.1,2.8,0.2,5.5-2.2,5.6c-1.3-3.5,4.2-8.6-1.1-9C147.8,269.3,139.7,290.6,151.2,295.3z M151.2,324.7c3.7-4.1,5.4-18.9,0-22.6
				c-0.2,2,1.1,5.6-2.2,4.5c0.1-4.6-0.1-8.9-4.3-9C146.8,306.6,142.9,322,151.2,324.7z M156.7,114.3c-4-1.6-12.7-2.1-13.1,3.4
				C147.9,119.6,156.1,119.6,156.7,114.3z M142.5,187.8c8.2-2.6,9.3-16.6,7.6-26c-3.9-1.8-0.7,3.8-3.3,3.4c-0.2-1.7,0.4-4.2-1.1-4.5
				C141.5,167.2,136.2,180.3,142.5,187.8z M142.5,260.2c10-2.5,5.6-19.9,6.5-31.7c-4-0.8-1.9,4.8-4.3,5.6c-0.1-4,0.8-9.1-3.3-9
				C141.9,236.7,135.8,252.7,142.5,260.2z M147.9,221.7c6.3-6.1,3.3-23.8-1.1-31.7c-3.9,2.7-0.5,13.1-3.3,16.9
				c-0.1-5.9,1.1-13.2-3.3-14.7C137.6,205.3,139.9,216.9,147.9,221.7z M151.2,122.1c-11.8-4.6-24.3,4.3-28.3,14.7
				C138,137.8,146.1,131.6,151.2,122.1z M136,376.8c8.9-8.4,13.3-29.2,6.5-44.1c-1.8,2.2-1.2,7-3.3,9c-0.6-1.6,1.2-5.9-1.1-5.6
				C133.9,345.3,129.6,366.9,136,376.8z M136,297.6c9-2.6,8.1-21.8,6.5-31.7c-1,4.3-0.8,9.7-3.3,12.5c-0.6-5.9,4.9-12.1,0-15.8
				C136.3,272.8,130,287.9,136,297.6z M136,331.4c9.9-2.9,8.5-22.7,3.3-30.5c-1.8,2.3,0.1,8.4-2.2,10.2c-0.8-2.5-0.7-6.2-3.3-6.8
				C133.3,313.2,130.5,326.1,136,331.4z M130.5,184.4c8.7-3.5,11-24.2,7.6-32.8c-1.4,4.5-2.4,9.6-4.3,13.6
				c-0.4-5.3,2.2-7.6,2.2-12.5C128.9,156,125.2,179.8,130.5,184.4z M129.4,261.3c10.8-3.5,8.1-27.1,6.5-39.6c-1.8,9-2,19.8-5.4,27.1
				c-1-7,5.4-16.1,0-20.4C129,238.3,124.8,252.1,129.4,261.3z M130.5,220.6c9.2-3.4,6.5-24.6,3.2-34c-2.9,3.4,1.1,13.9-3.2,15.8
				c-1.3-6.7,3.7-12.8-2.2-14.7C125.7,199.2,123.7,213.9,130.5,220.6z M126.1,298.7c5-8.4,7.6-25.3,6.5-36.2
				c-2.7,5.1-1.6,14.2-5.4,18.1c-0.5-4.7,4.3-9.8,1.1-13.6C127.5,276.9,117.1,292.3,126.1,298.7z M117.4,388
				c11-9.4,16.2-36.7,12-54.3c-0.7,4.2-1.1,8.7-3.2,11.3c-0.1-1.3,0.2-3.2-1.1-3.4C121.1,355,109,372.4,117.4,388z M120.7,336
				c12.9,0.1,8.9-29.1,7.6-36.2c-4.8,4.1-0.4,17.7-5.4,21.5c0.4-3.8,2.8-11.4,0-14.7C120.9,315.2,116.5,327.8,120.7,336z
				 M119.6,179.9c9.9-7.6,9.2-25.1,7.6-39.6c-1.1,0-2.2,0-3.3,0C121.2,152.8,108,169.1,119.6,179.9z M114.2,261.3
				c12.1-3.8,13.4-30.4,10.9-41.9c-1.5,0.7-0.1,4.3-2.2,4.5c-0.6-1.6,1.2-5.9-1.1-5.6C117.4,230.6,109.2,246.3,114.2,261.3z
				 M109.9,302c12.5-5.1,14.5-27.1,14.2-41.9c-2.3,4-2.3,10.5-5.4,13.6c-0.8-4.3,4.5-8.1,1.1-11.3
				C114.6,273.4,106.3,285.8,109.9,302z M118.5,217.2c5.6-6.3,6-23.9,4.3-34c-1.2,5.9-1.5,12.8-4.3,16.9c-1.2-6.2,4.5-11.1,1.1-15.8
				C116.9,192,111.4,210.1,118.5,217.2z M104.4,341.6c15.5-2.7,14.3-28.9,14.2-44.1c-1.8,4.2-1.5,10.5-4.3,13.6
				c-1.5-3.5,3.2-6.3,0-7.9C109.6,314.1,99.7,328.4,104.4,341.6z M118.5,339.4c-5.1-1.5-2.3,5.1-5.4,5.6c-1.4-2.8,3.2-4.7,0-5.6
				c-8.2,18.2-20.5,32.3-18.5,61.1C109.8,387.6,115.1,364.4,118.5,339.4z M110.9,213.8c-1.9-12.2,6.5-19.7,4.3-28.3
				c-2.7,4.3-1,0.8-1.1-3.4c-7.4,9.2-13.7,19.2-10.9,36.2C106.9,217.9,108.1,215.1,110.9,213.8z M114.2,224c-4.5,0.2-1.2,8.6-5.4,9
				c-0.1-5,5.1-10.6,2.2-14.7c-5.1,13.1-18.5,25.4-9.8,43C111.8,255.4,111.3,237.9,114.2,224z M94.6,303.2
				c10.6-6.2,18.6-26.4,15.3-39.6c-0.9,4.4-1.2,9.2-4.3,11.3c-0.1-5,5.1-10.6,2.2-14.7C103.9,275,90.7,283.9,94.6,303.2z
				 M91.3,338.3c11.1-4.8,14.2-23.6,15.3-35.1c-4.8,1.4-2.6,10-6.5,12.5c-1.6-5.6,6.9-11.1,1.1-13.6
				C97.1,313.3,89.3,320.6,91.3,338.3z M103.3,348.4c-2.7-1.5-3.4,4.5-4.3,1.1c0.1-1.6,4.8-5.9,0-5.6c-8.1,16.1-18.4,30.9-12,56.5
				c4.1,0.9,2.3-4.3,5.4-4.5C89.8,373.7,100.2,364.8,103.3,348.4z"/>
			<path d="M431.1,518.1c6.9,4.6,15.5,13.2,18.5,18.1C443,534.9,435.7,525.1,431.1,518.1z"/>
			<path d="M425.6,523.8c5.5,5.5,18,13.6,15.3,20.4C437.3,536.2,426.7,530.7,425.6,523.8z"/>
			<path d="M427.8,62.2c9.2,4.3,14.9,12.5,20.7,20.4c-3.5,10.3-12.8,14.5-19.6,21.5c-8.9-4.3-15.6-10.9-20.7-19.2
				C412.7,75.2,420.8,69.3,427.8,62.2z M420.1,90.5c6.8-2.3,11-7.4,14.2-13.6C427.3,79,423.6,84.7,420.1,90.5z"/>
			<path d="M435.4,284c0,0.2,0,0.4,0,0.7c-0.1-0.3-0.2-0.7-0.3-1C435.2,283.7,435.3,283.8,435.4,284z"/>
			<path d="M422.3,538.5c6.7-7.6,16.9,8.2,8.7,13.6c-8.7,1.2-12.4-2.9-12-11.3c2.8,3.9,4.8,8.6,9.8,10.2
				C435.8,547.8,430.2,536.7,422.3,538.5z"/>
			<path d="M420.1,557.7c0.4,2.6-3.2,1.2-3.3,3.4c-2.4-4-3.7-9-6.5-12.5c-2.8,0.1-3.8,2.1-5.4,3.4c-3.8-3.7,5.8-3,5.4-6.8
				C415.7,547.3,413.5,557.2,420.1,557.7z"/>
			<path d="M415.8,505.7c1,3.4,5.3,3.5,5.4,7.9c-2.9,0.7-2.7,4.7-6.5,4.5c-4.7,0.4-3.6-5.4-7.6-5.6c-3.3,3.1,3.6,5.2,3.3,9
				c0,3.8-4.4,3-5.4,5.6c-7.6-3.4-10.3-12-16.4-16.9c5.1-5.8,17.7-22.6,22.9-7.9c0.2,4-5.1,2.2-4.3,6.8
				C410.3,511.8,411.2,505,415.8,505.7z M403.8,510.2c0.4-4.3-2.3-5.1-4.3-6.8C397.1,506.2,401.9,508.4,403.8,510.2z"/>
			<path d="M414.7,54.3c-0.7,12-7.3,18-9.8,28.3c-5.9,0.9-7.9-2.3-12-3.4c1-9.3,8.7-17.2,7.6-24.9c-5.7,5.1-7,14.7-10.9,21.5
				c-6.4,0.6-9.8-2-12-5.6c2.2-9.8,6.5-17.5,9.8-26C399.6,44.3,406.3,50.3,414.7,54.3z"/>
			<path d="M409.3,564.5c0.2,1-0.4,1.1-1.1,1.1c-0.9,0.6-1.8,1.2-3.3,1.1c1-7.4-7.3-10.1-5.4-14.7
				C405.4,553.4,403.7,562.8,409.3,564.5z"/>
			<path d="M395.1,569c1.6,0.5-0.4,1.5,0,3.4c-6.6,1-7.2-4.8-4.3-7.9C391,564.6,391.3,573.4,395.1,569z"/>
			<path d="M401.7,569c-8.6-1.2-5.6-9.8-10.9-12.5C396.7,553.9,398.2,565.4,401.7,569z"/>
			<path d="M385.3,511.3c2.1,8.1,6.4,13.8,7.6,22.6c-7.1,2.8-13.9,6-21.8,7.9c-4.2-6.2-6.3-14.5-8.7-22.6
				C370.1,516.6,376.6,512.9,385.3,511.3z M382,535.1c-2.1-6.2-2.4-14.1-7.6-16.9C375.7,525.1,376.5,532.6,382,535.1z"/>
			<path d="M385.3,567.9c1.5,1.5,1.5,6.4,0,7.9c3.3-7.7-12.9-2.6-10.9-12.5C376.4,566.7,379.4,568.7,385.3,567.9z"/>
			<path d="M381,40.7c-1,3.9-1.6,8.1-3.3,11.3c-5.5,0.8-7.9-1.5-12-2.3c0.7-2.7,1.5-5.1,1.1-9c-8.7-0.3-8.5,19.3-6.5,22.7
				c4.3,0.4,2.3-5.9,4.3-7.9c5.2-0.4,7.8,1.7,12,2.3c-0.2,4.3-1,8.1-2.2,11.3c-8.8,1.5-20-3-28.3-5.6c-1.1-9.6,1.4-21.8,5.4-29.4
				C363.5,33.9,373,36.5,381,40.7z"/>
			<path d="M373.4,577c-0.8,2.6-3.3,3.4-5.4,4.5c-4.3-1.8-7.4-4.7-7.6-7.9c-0.7-9.5,14.2-12.3,9.8-3.4c-4,0.3,0.7-3.5-3.2-4.5
				c-6.7,2.1-4.3,8.7-1.1,12.5C369.2,578.7,370.8,577.3,373.4,577z"/>
			<path d="M357,521.5c2.3,6.7,3.2,14.8,4.3,22.7c-5.6,4.3-15.5,4.2-24,5.6c-0.1-9.4-4.2-14.5-3.3-24.9
				C342.5,524.5,348.2,521.4,357,521.5z M349.4,545.3c1.3-5.1,0.3-16.6-4.3-19.2C346.3,532.7,345.9,540.9,349.4,545.3z"/>
			<path d="M360.3,583.7c-5.3-2.1-5.5,1.9-12,1.1c-4.7-2.7-4.8-15.6,2.2-15.8c-1.9,1.8-4,3.4-3.3,7.9c0.4,3.7,3.3,4.9,5.4,6.8
				c5.9-0.7,3.2-13.1-1.1-13.6c5.4-2.2-1.2-7.9,1.1-10.2C358.3,564.6,356.3,577.3,360.3,583.7z"/>
			<path d="M346.1,357.5c0.3,2.5,0.3,4.8,0,7C346.1,362.2,346.1,359.8,346.1,357.5z"/>
			<path d="M343.9,32.8c1,9.1-4.9,7-9.8,7.9c0.2,3.5,5.4,1.9,8.7,2.3c0,2.6,0,5.3,0,7.9c-2.1,2-7.2,0.8-10.9,1.1
				c-0.3,5.6,8.4,1.8,10.9,4.5c0.1,3.5-1.3,5.4-2.2,7.9c-10-0.6-19.4-1.7-28.3-3.4c-3-8.4,1.2-17.2,0-27.1
				C317.6,25.1,334.6,32.2,343.9,32.8z"/>
			<path d="M340.6,177.6c0,9.4,0,18.8,0,28.3c-18.8,0-37.8,0-56.6,0c16-2.6,36.7-0.4,54.4-1.1c2.6-6.5,0.4-17.7,1.1-26
				c-50.5,0.7-103.8-1.5-152.5,1.1c0.3-4.3,9.7-2.3,16.4-2.3C246.3,177.6,297.1,177.6,340.6,177.6z"/>
			<path d="M329.8,564.5c0.3,7.6,3.4,18.3,2.2,23.8c-4.6-5.1-2.1-17.4-5.4-23.8C327.6,564.5,328.7,564.5,329.8,564.5z"/>
			<path d="M328.7,526.1c1.4,7.3,2.5,14.7,2.2,23.8c-2.1,2-7.2,0.8-10.9,1.1c-0.2-3.5,0.7-8.3-1.1-10.2c-5,1.8,0.4,8.2-2.2,11.3
				c-3.3,0-6.5,0-9.8,0c-0.6-7.9-2.3-18.8-1.1-24.9C314,527.4,319.9,525.2,328.7,526.1z M318.9,537.4c-0.2-3.2,1-7.8-2.2-7.9
				C317.5,532,314.8,538.2,318.9,537.4z"/>
			<path d="M318.9,573.6c2.2,1.5,5.5,1.8,5.4,5.6c-3.1-1-2.9,1.6-5.4,1.1c-2-0.9,0.7-1.2,2.2-1.1C321.9,575.7,318.1,577,318.9,573.6
				z"/>
			<path d="M323.3,586c2.6,1.3-2.8,3.8-4.3,4.5c-7.2,0.8-9.6-14.7-2.2-15.8c-1.5,1.8-2.3,4.4-3.3,6.8
				C314.4,585.6,320,590.9,323.3,586z"/>
			<path d="M314.5,327c-0.1,3.2,0.6,7.4-1.1,9c-2.4,0.6-1.5-2.2-3.2-2.3c-2.3-0.2-0.5,4-1.1,5.6c1,3.3,1.6-2.6,4.3-1.1c0,3,0,6,0,9
				c-5.7,0.3-7.8-7.9-13.1-4.5c-2.9,1,2.9,2.1,1.1,5.6c-3.8,1.8-4.8-0.6-8.7,1.1c-0.7,4.9,2,6.2,4.3,7.9c5.2,0.9,1.5-7.6,7.6-5.6
				c1.5,13.3-19,13.1-17.4,0c-4.9,1.9-1.6,9.5-3.3,12.5c-3.4-0.1-4.8-2.6-8.7-2.3c1.5-3.2,7.9-10,2.2-13.6c-4.9,1-6.2,5.7-8.7,9
				c-2.4-1.3-3.6-3.8-6.5-4.5c1.2-3.3,1.5-7.5,3.3-10.2c-1.1-1.8-5.5,2.5-4.3,6.8c-4.3,0.6-4.5-2.9-7.6-3.4
				c4.1-2.6,9.2-7.4,8.7-11.3c-0.3-2.9-1.9,1.5-4.3,0c-1.8-3.1,1.5-5.8-1.1-9c-4.8-0.8-6,2.1-7.6,4.5c-0.4,5.4,7.3,2.1,6.5,7.9
				c-14.6,0.1-13-17.7-3.3-18.1c10.5-0.4,8.3,17,18.5,19.2c-1.2,3.7-3,6.7-3.3,11.3c3.1-1.7,4-5.6,5.4-9c5.5,6.4,18,9.5,25.1,2.3
				c-0.7-5.9,0.8-9.8,1.1-14.7C305.3,333.3,311,325.2,314.5,327z"/>
			<path d="M312.3,445.7c4.2,1,0.8,4.5-3.3,3.4C307.4,445.1,312.8,448.4,312.3,445.7z"/>
			<path d="M310.2,28.3c1.5,3.7,1,9.5,1.1,14.7c-1.8,2.3-8.1-0.1-9.8,2.3c0,4.9,0,9.8,0,14.7c-2.8,1.8-11.4,1.8-14.2,0
				c0-5.3,0-10.6,0-15.8c0.5-4-5.9-0.7-6.5-3.4c-2.1-2.4-0.7-8.3-1.1-12.5C289.8,28.3,300,28.3,310.2,28.3z"/>
			<path d="M298.2,529.4c5.5,2.4,3.4,18,2.2,23.8c-5.6,2.4-15.5,0.5-22.9,1.1c-2.1-6.5-0.7-16.6-1.1-24.9c1.8,0,3.6,0,5.4,0
				c4,5.2,2.2,16.6,6.5,21.5C295.2,547.5,288.5,529.9,298.2,529.4z"/>
			<path d="M299.3,577c1.1,3.7-2.4,12.3,2.2,12.5c-4.2,4.5-5.7-0.7-4.3-6.8c-3.9-0.6-4.8,1.8-6.5,3.4c1,1.7,0.9,4.4,4.3,3.4
				c-1.6,3.3-5.9,2.2-6.5-1.1c0.4-4.8,4-6.3,8.7-6.8c0.1-2.8,0.2-5.5-2.2-5.6C292.2,573.4,298.4,576.1,299.3,577z"/>
			<path d="M292.8,457.1c0.2,2.5-3.9,0.5-5.4,1.2c-0.3-5,1.1-11.7-3.3-12.5c0.1-2.1,3.6-0.8,3.3-3.4
				C292.5,443.8,288.8,454.3,292.8,457.1z"/>
			<path d="M279.7,264.7c5.4,1.9,9.8,5,10.9,11.3c-7.2,0.8-2.9,10.2-6.5,12.5c-2.5-2.3-5.8-3.7-6.5-7.9c1.5-1.4,1.7-0.4,3.3,0
				c0.5-3.5-2.9-3-3.3-5.6c-3.7,1-0.1,2.5-2.2,4.5c-3.5-0.9-4.8-4.1-7.6-5.6C269.9,268.9,280.3,272.5,279.7,264.7z"/>
			<path d="M275.3,365.4c-1.3-2.4,10.9-1.3,9.8,3.4C282,367.5,281.2,363.8,275.3,365.4z"/>
			<path d="M281.8,122.1c0.1,3.9-3.2,4.3-5.4,5.6C275.4,127.4,279.6,123,281.8,122.1z"/>
			<path d="M280.8,517c0.1,2.1-1.3,2.4-1.1,4.5c-5.1,0-10.2,0-15.3,0c3.9-1.9,2.2-12.1,1.1-15.8c5.6,1,16.2-3.2,14.2,5.6
				c-0.7-1.5-8.7-4.8-8.7,0c0.1,2.8,3.6,0.2,3.2-1.1c2.4,0.1,0.4,4.8,1.1,6.8c-1.9-1-3.2-3.6-5.4-1.1
				C270.2,522.5,277.9,517.7,280.8,517z"/>
			<path d="M280.8,590.5c-5.7,0.4-3.7-15.7-2.2-15.8C284,574.6,279.6,588.1,280.8,590.5z"/>
			<path d="M286.2,114.3c-4.5,3.6-8.3,8-13.1,11.3c-5.6,0.2-6.5-4.5-7.6-9c-3.7,0.5-6.1-0.4-8.7-1.1
				C263.4,113.5,278.2,117.5,286.2,114.3z M273.2,123.3c1.2-0.4,5.1-3.5,2.2-4.5c-1.2,4.5-5.7,1.2-6.5-1.1
				C268.5,121.3,270.1,123.1,273.2,123.3z"/>
			<path d="M275.3,444.6c1.9,2.7,5.4,12.7,0,14.7c0.1-2.8,0.2-5.5-2.2-5.6c-1.8-0.5-1.8,6.2,0,5.6c-0.3,2.6-2.9-1.3-4.3-1.1
				c3.9-5.9-2.1-8.7,2.2-13.6c2.9-0.4-1,6.4,3.2,4.5C278.1,448.8,272.3,444.1,275.3,444.6z"/>
			<path d="M262.3,545.3c3.3,0,6.5,0,9.8,0c-0.2,3.5,0.7,8.3-1.1,10.2c-7.3,0-14.5,0-21.8,0c-2.3-5.9-0.5-16.1-1.1-23.8
				c1.8-1.9,6.4-0.9,9.8-1.1c-0.4,8,1.9,13.1,1.1,21.5C264.2,551.8,260.1,548.7,262.3,545.3z"/>
			<path d="M265.6,254.5c3.8,1.3,8.1,2.1,8.7,6.8c-7.3,0.1-6.4,7.6-7.6,11.3c-3.6-1.5-7.3-2.9-8.7-6.8
				C262.8,266.8,265.6,258.8,265.6,254.5z"/>
			<path d="M266.7,575.9c6.7-5.1,1.8,11.7,6.5,12.5c-1.9,2.9-8.9,2.3-13.1,1.1c-0.5-5.1,2.9-6,5.4-7.9c2.9,1.3-4.4,1.3-2.2,5.6
				c1,3.8,2.1,0.6,5.4,1.1C267.6,582.1,270.5,578.5,266.7,575.9z"/>
			<path d="M267.5,360.7C268.2,361.1,268.2,361.3,267.5,360.7L267.5,360.7z"/>
			<path d="M263.4,356.4c2.1,2.4,3.4,3.7,4.2,4.3c-1.2-0.9-4.5-2.8-9.6-3.2c-3.2-1.6-0.8-8.9-5.4-9c3.6-3.7,4.1,5.5,5.4,7.9
				C259.8,356.4,261.5,356.4,263.4,356.4z"/>
			<path d="M262.3,509c0,3,0,6,0,9c-2.3,4-8.9,3.7-15.3,3.4c2.1-3.5,1.2-12.2,0-15.8C253.9,504.9,258.6,506.5,262.3,509z
				 M252.5,519.2c8.7,1.9,7.6-11.4,0-10.2C252.5,512.5,252.5,515.9,252.5,519.2z"/>
			<path d="M261.2,252.2c0.4,2.7-2,2.5-1.1,5.6c-5.6,1.6-4.7-3.4-7.6-4.5c-4.4-0.1-4.7,4.2-4.3,9c3.6,2.6,6.7-3.6,10.9,0
				C241.6,278.9,233.5,239.1,261.2,252.2z"/>
			<path d="M259,445.7c7.4-2.6,4.6,16.4-4.3,13.6c1-2,4-1.9,4.3-4.5c-1.3-1.6-4.2-1.7-5.4-3.4c-0.5-3.5,1.5-4.4,2.2-6.8
				c4.5-1.3-2.1,7.8,3.2,7.9C260.8,452.7,260.8,445.5,259,445.7z"/>
			<path d="M256.8,319c-1.8,0-3.6,0-5.4,0c-1.5-5.3,3.6-3.8,2.2-9c-6.2,3.8-2.6,1.5-9.8,0c-2,6.2,5.2,2.9,3.2,9c-1.8,0-3.6,0-5.4,0
				c1.3-6.7-2.4-12.7,0-16.9c3.7,2.9,10.4,2.9,14.2,0C258,305.8,256.3,313.5,256.8,319z"/>
			<path d="M255.7,28.3c1.9,7.8,1.6,22.7,0,30.5c-7,3.7-23,2.7-31.6,1.1c1.5-10.5-3.4-27.7,3.3-32.8
				C236.6,27.8,248.4,25.8,255.7,28.3z M241.6,53.1c1-3.4,3.2-16.6-1.1-18.1C239.6,39.1,237.4,51,241.6,53.1z"/>
			<path d="M253.5,574.7c4,2.1,5.5,15.5-1.1,15.8c3.4-3.7,2.6-12.2-2.2-13.6c-4.5,1.5-6.2,11.6-1.1,13.6c-5.2-2.1-0.7,8.6-4.3,9
				c-3.8-1.2,1.5-17.8-2.2-22.7C245.8,575.4,249.9,577.5,253.5,574.7z"/>
			<path d="M254.6,280.5c-3.4,4.8,3.1,19.7-5.4,19.2c-2.4-2.3-0.2-5,1.1-6.8c-3.6-3.6-8.8,0.6-12,1.1c0-3.4,0-6.8,0-10.2
				c3.9,0.9,6.1,3.4,12,2.3c2.6-1-3-2.8-1.1-6.8C251.7,279.1,253.4,279.6,254.6,280.5z"/>
			<path d="M245.9,443.5c0.5,6.2-2.6,10.8,0,15.8c-1.3-1.3-3.9-1.3-6.5-1.1c2.9-3,4.4-9.8,2.2-14.7
				C243,443.5,244.5,443.5,245.9,443.5z"/>
			<path d="M243.4,335.9c0.5,0.3,1,0.7,1.5,1.2C244.3,336.9,243.8,336.5,243.4,335.9z"/>
			<path d="M242.7,204.8c3.6,3.7-1.3,21.4-0.8,30.3c-1.2-8.2,0.4-19.2-0.3-28c-12.8-3.4-32.5,0.5-46.8-1.2
				C209.6,205.7,238.3,200.2,242.7,204.8z"/>
			<path d="M242.7,530.5c-0.1,8.6,0.8,18.2-2.2,23.8c-4.5,0.6-7.4-0.7-9.8-2.3c-0.8-4.2,2.7-6.3,0-9.1c-4.2,0.2-0.7,8.4-3.2,10.2
				c-3.4-0.2-8,0.7-9.8-1.1c-0.8-9.2,1.3-15.3,1.1-23.8C227.4,528.3,236.7,527.7,242.7,530.5z M231.7,538.5
				c-0.7-2.3,1.8-7.8-2.2-6.8C230.3,534.1,227.9,539.6,231.7,538.5z"/>
			<path d="M241.6,338.3c2.4,3.2,0.4,20.7,1.1,29.4C240.3,364.5,242.2,347.1,241.6,338.3z"/>
			<path d="M241.9,235.1c0.2,1.3,0.4,2.5,0.8,3.7C242.2,237.8,241.9,236.5,241.9,235.1z"/>
			<path d="M241.6,263.6c-4-0.7-4.2,2.4-7.6,2.3c-2.6-2.6-5.8-4.5-7.6-7.9c-2.2,2.7,4,6.3,4.3,10.2c-3.4,0.6-6.1,2-8.7,3.4
				c-2.9,10.4-5,17.2-5.4,28.3c-3.5-3.8-10.3-2.1-14.2,0c0-3.4,0-6.8,0-10.2c3,2.2,11.9,4.4,13.1-1.1c-1.1-5.3-6.5-6-13.1-5.6
				c1.5-6,4-11,5.4-16.9c3.1-1,2.9,1.6,5.4,1.1c1.5,5.7-5,3.1-4.3,7.9c1.9,4,1.8-3.3,5.4-1.2c-0.4,2.6,0.1,4.3,1.1,5.6
				c4.3-1.1,1-5.7,1.1-9c2.3-2.5,3.1,0.6,6.5,0c1.9-8.7-3.4-10-5.4-14.7c4-0.4,6-2.8,9.8-3.4c1.8,3.4,5,5.4,7.6,7.9
				c2.2-2.7-4-6.3-4.3-10.2c3.4,0.2,3.7-3,7.6-2.3C235.5,254.7,241.4,256.6,241.6,263.6z"/>
			<path d="M228.5,574.7c2.9,2.6-0.8,12.2,2.2,14.7c-8.4,4.2,0.5-12.2-5.4-13.6C225.4,574.5,227.2,574.9,228.5,574.7z"/>
			<path d="M216.6,300.9c8.1-0.2,11.3,8.8,9.8,13.6c-3.6,11.4-18.7,2.3-18.5-9c0.9-1,3-0.7,3.2-2.3c3.4,1,3.7,4.5,2.2,7.9
				c0.6,4,6.3,1.8,8.7,1.1C224,304.4,216,307.1,216.6,300.9z"/>
			<path d="M223.1,590.5c-13.5-2.1,9.2-14.4-2.2-5.6C220.1,588.3,223.9,587.1,223.1,590.5z"/>
			<path d="M217.6,448c-0.1-3.2,5.6-2.1,5.4,1.1C220.5,449.5,218.9,448.9,217.6,448z"/>
			<path d="M219.8,62.2c-4,0-8,0-12,0c-2.7-1.7,0.7-9.8-2.2-11.3c-5-0.3-0.1,9.8-3.2,11.3c-4,0-8,0-12,0c-3.2-7.6-2-19.8-3.2-29.4
				c3.4-8.5,22.3-5.9,31.6-4.5C221,37.6,219.3,51.1,219.8,62.2z M204.5,45.3c1.7-1.5,3.1-5.9,1.1-7.9c-0.2-0.9-0.9-1.3-2.2-1.1
				C202.5,37.3,200.4,46,204.5,45.3z"/>
			<path d="M212.2,573.6c3.6,0.5,3.6,15.3,0,15.8C209.3,589.1,213.5,576.4,212.2,573.6z"/>
			<path d="M212.2,530.5c-5.5,0.1-10.1-0.8-12-4.5c-7,5.4,4.3,8.3,9.8,7.9c0.8,6.2-1.3,9.2-1.1,14.7c-7.2,1.5-17.2-2-24-4.5
				c-0.8-3.4,1.1-4.1,1.1-6.8c1.8,0,3.7,0,5.4,0c2.6,2.2,2.3,7.4,6.5,7.9c2.1-0.8,2.9-3,3.2-5.6c-0.3-7.3-11.1-3.6-14.2-7.9
				C183.1,515.2,211.4,521.9,212.2,530.5z"/>
			<path d="M196.9,582.6c0.1,2.6,5.7,5.2,7.6,2.3c-2.7,10.5-16.6-5.9-6.5-12.5C200.6,574.5,194.9,577.4,196.9,582.6z"/>
			<path d="M194.8,205.8c-4.8,0-8.2-0.5-8.7-2.1C188.6,204.7,191.6,205.4,194.8,205.8z"/>
			<path d="M191.5,571.3c1.2,5.8-3.2,11.7-1.1,14.7c-0.3,2.9-1.8-1.5-4.3,0c1.4-3.2,7.3-15-1.1-14.7
				C185.4,568.8,190.8,570.4,191.5,571.3z"/>
			<path d="M187.2,201.3c-2.3,0.1-0.5-13.8-1.1-19.2C188.4,182,186.6,195.9,187.2,201.3z"/>
			<path d="M180.6,32.8c0,11.3,5.1,17.4,4.3,29.4c-7.3,5.3-19.5,5.4-29.4,7.9c-3.6-9.1-5.1-20.4-6.5-31.7
				C157.2,34.6,170.7,31.2,180.6,32.8z M169.7,58.9c0.5-3.6,1.2-16-4.3-16.9C166,48.3,165.5,56.1,169.7,58.9z"/>
			<path d="M182.8,569c0.9,3.7-1.7,10.1-3.3,14.7c-5.3-0.8,3.5-11,0-13.6C179.7,568.8,181.5,569.2,182.8,569z"/>
			<path d="M164.3,580.3c-9.2-14.2,15.8-19.1,9.8-7.9c-4.6,1.1,1.8-5.6-3.2-5.6c-9.6-0.5-5.1,17.8,2.2,12.5
				C172.4,583.2,166.7,581.1,164.3,580.3z"/>
			<path d="M173,416.3C174.5,417,172.9,417.7,173,416.3L173,416.3z"/>
			<path d="M173,418.6c-2.6,1.5-6.7-5.1-9.8-6.8c2.8-2.4,7,3.2,9.8,4.5C169.4,415.5,171.3,418.6,173,418.6z"/>
			<path d="M164.3,529.4c1.7,3.7-0.7,6.7-2.2,10.2c-8.9-0.9-15-4.8-21.8-7.9c3.4-8.2,4.1-27.2,16.4-19.2c0.7,9.8-5.9,11.9-5.4,21.5
				c4.3,0.7,2.8-4.6,5.4-5.6C160.2,527.7,161.7,529.1,164.3,529.4z"/>
			<path d="M161,562.2c0,6.5-4.4,8.3-3.3,15.8c-9-1.1,2.9-7.4,0-15.8C158.9,562.2,160,562.2,161,562.2z"/>
			<path d="M141.4,571.3c-13,0.9-6.5-27.4,6.5-21.5C139.4,550.2,132.3,566.5,141.4,571.3z"/>
			<path d="M147.9,70.1c-2.6,2.6-6.7,3.7-10.9,4.5c-4-8.7-7.5-17.9-10.9-27.1c2.6-3.4,5.6-6.2,12-5.6
				C140.6,52.1,145.7,59.6,147.9,70.1z"/>
			<path d="M144.7,510.2c-3.8,5-6.5-2.5-12-2.3c-0.2,5.5,6.7,3.5,6.5,9c-4,5.2-7-1.9-12-2.3c0.4,5.3,6.2,4.9,6.5,10.2
				c-7.9,5-14.3-8.7-21.8-11.3c2.6-8.2,9.2-12.3,13.1-19.2C133.6,497.7,140.8,502.2,144.7,510.2z"/>
			<path d="M120.7,62.2c3.5,4.7,8.3,8,10.9,13.6c-5.5,9.4-13.8,15.8-22.9,21.5c-3.2-2.3-5.7-5.4-6.5-10.2c4.5-2.1,5.6-7.7,13.1-6.8
				c-2.6-9-8.6,3.5-14.2,3.4c-5-0.1-10.2-4.7-9.8-10.2c0.1-1.3,21.9-28.5,25-15.8c-0.7,7.1-9.1,6.5-10.9,12.5
				C112.1,73.6,113.8,62.2,120.7,62.2z"/>
			<path d="M125,547.5c-1.3,5.1-4.6,8-5.4,13.6c-2.1-2.4-4.7-4.2-8.7-4.5c-0.9-5.1,1-7.3,5.4-6.8c0.4,2.6-3.2,1.2-3.3,3.4
				c-0.2,2.5,0.9,3.6,3.3,3.4c3.7-1,7.6-7.9,5.4-11.3C122.1,542.6,124.8,546.5,125,547.5z"/>
			<path d="M114.2,531.7c0.1-1.3,2-1,3.2-1.1c-1.8,5.4-7.7,20.9-15.3,20.4C106.9,545.9,113.5,537.1,114.2,531.7z"/>
			<path d="M105.5,99.6c-0.2,5.1-2.8,7.7-5.4,10.2c-4.8,0.4-5.6-3.2-9.8-3.4c-0.6,5.2,4.8,4,5.4,7.9c0.2,5.9-3.1,8.1-5.4,11.3
				c-10-3.9-18.2-9.8-25.1-16.9C69.6,97,79.5,74.5,91.3,90.6c0.7,4.1-2.3,4.3-2.2,7.9c4.3,0.3,3.3-4.8,7.6-4.5
				C100.6,94.9,102.8,97.4,105.5,99.6z M82.6,104.1c0.8-4.7-3.7-7.1-6.5-4.5C76.7,102.6,79.1,104,82.6,104.1z"/>
			<path d="M91.3,535.1c4.8-0.4,9-5.9,12-4.5c-4.9,3.6-11.1,5.9-17.5,7.9c4-4.1,5.6-10.8,6.5-18.1C99.6,523.6,90.4,528.3,91.3,535.1
				z"/>
			<path d="M84.8,510.2c2.9,6.5-7.3,8.9-10.9,12.5c1.5-6.8-6.2-4.1-4.3-11.3C75.2,506,82.1,519.2,84.8,510.2z M79.4,515.9
				c1-4.6-5.9-4-7.6-2.3c-0.8,3.1,2.2,2.3,2.2,4.5C76.6,518.3,77.2,516.4,79.4,515.9z"/>
			<path d="M88.1,129c-1.8,12.1-6.2,21.4-13.1,28.3c-10.2-1.8-17.5-6.7-25-11.3c-0.6-13.4,7.6-17.8,9.8-28.3
				c4.1-0.5,5.1,2.2,7.6,3.4c0.1,3.6-2.9,3.7-2.2,7.9c4.2,0.2,3.5-4.6,5.4-6.8c3.2,0.4,5.5,1.8,7.6,3.4c-0.1,4-3.2,5.1-3.3,9
				c4.4,3.2,3.7-7,7.6-7.9C85.3,126.5,86,128.4,88.1,129z"/>
			<path d="M83.7,538.5c0.2,2.5-3.9,0.5-5.4,1.1c0.1-1.3-0.2-2.1-1.1-2.3C79.6,533.1,80.1,540.2,83.7,538.5z"/>
			<path d="M76.1,497.8c1.5,0.4,1.7,2,3.3,2.3c-3.5,4-10.7,4-13.1,9.1c-1.5-0.7-2.1-2.4-2.2-4.5C70.3,504.6,73.6,501.6,76.1,497.8z"
				/>
			<path d="M75,495.5c-2.9-4.4-5.8,2.4-10.9-1.1c2.6-2.1,8.9-0.5,7.6-6.8C73.3,489.8,74.2,492.5,75,495.5z"/>
			<path d="M75,161.7c-1.7,9.9-3.6,19.7-7.6,27.1c-10.8-0.5-18.2-4.5-28.3-5.6c0-2.6,0-5.3,0-7.9c6.5-2.2,16.8-0.7,25-1.1
				c-1.5-4.8-12.8-9.2-19.6-12.5c0.2-3.5-0.7-8.3,1.1-10.2C56.8,153.5,65.8,157.7,75,161.7z"/>
			<path d="M61.9,489.8c-0.8-5.5,6.1-7.3,9.8-4.5C68,486.3,65.1,488.3,61.9,489.8z"/>
			<path d="M66.3,455.9c1.8-0.3,1.8,1.1,3.2,1.1c-4.9,4.8-18.9,10.7-24,7.9C51.7,461.1,62,461.6,66.3,455.9z"/>
			<path d="M52.2,470.6c5.6-4.3,16.4-2.4,14.2,7.9C62.1,487,45.7,482.4,52.2,470.6z M65.2,474c-0.1-1.5-1.4-1.5-1.1-3.4
				c-6.6,0.3-12.3,1.5-12,9C57.3,482.7,64.7,479.4,65.2,474z"/>
			<path d="M66.3,196.9c0,4.9-1,8.8-2.2,12.5C53,209,43,207.2,34.7,203.8C31,181.3,56.9,196.1,66.3,196.9z"/>
			<path d="M61.9,214.9c2,4,0.4,8.8-1.1,12.5c-9.6,1.1-18.7-3.7-26.1-1.2c5.2,5.6,18.8,2.3,25,6.8c0.5,6.2-0.7,10.6-3.3,13.6
				c-9.5-2.2-20.9-2.4-29.4-5.6c0.4-10.9,1-21.7,4.3-29.4C42.3,211.9,52.7,212.9,61.9,214.9z"/>
			<path d="M57.6,488.7c1.4,1.4,5.7,8.7,3.2,13.6C60.3,497.5,55.5,492.6,57.6,488.7z"/>
			<path d="M57.6,251.1c0.2,10.8-1,20.1-2.2,29.4c-9.6,2-23.8,0.1-32.6-2.3c-0.4-5.4,0.5-9.2,2.2-12.5c7.3,1.9,17.3,1,25.1,2.3
				c-1.5-9.1-17.9-2.5-24-6.8C18.3,240.4,46.8,249.8,57.6,251.1z"/>
			<path d="M56.5,448c5.4,8.4-10.9,12.5-14.2,5.6c-2-10.6,8-13.5,14.2-9.1c-3.7,0.7-13.6-0.4-13.1,7.9
				C46.1,457.3,57.4,454.3,56.5,448z"/>
			<path d="M55.4,501.1c1.2,3.7-12.2-11.4-1.1-11.3C50.2,493,53.7,497.7,55.4,501.1z"/>
			<path d="M51.1,429.9c2.8,0.1,2.2,3.8,2.2,6.8c-4.5,0.7-11.5,4.5-14.2,3.4C41.2,434.8,55,438,51.1,429.9z"/>
			<path d="M50,392.5c1.5-1.5,1.1-4.9,1.1-7.9c-7.5-0.2-16.9,3.5-21.8,2.3c1.8-7.1,15.6-1.8,20.7-5.6c0-3,0.6-6.7-2.2-6.8
				c0.1-1.3,2-1,3.3-1.1C49.1,380.5,56.8,390.9,50,392.5z"/>
			<path d="M48.9,412.9c-2.2,0.5-12.8-1.5-13.1,4.5c0.1,2.1,0.7,3.8,2.2,4.5c-0.7,2.5-3.6-2.1-4.3-3.4
				C33.3,410.8,43.7,408.4,48.9,412.9z"/>
			<path d="M45.6,399.3c2.9,2.3,0.4,8.7-3.3,7.9c0.4-2.7-2-2.5-1.1-5.6c1,0.1,0.8,1.4,1.1,2.3C45.2,404.2,45.9,402.3,45.6,399.3z"/>
			<path d="M51.1,425.4c-0.4,6.3-11.3,1.8-13.1,6.8C33.6,426,50.1,425.9,51.1,425.4z"/>
			<path d="M44.5,397.1c1.1,0.2-15.7-0.8-9.8,9c-1.9,2.6-4.3-3.7-3.3-7.9C34.3,395.4,41.2,393.3,44.5,397.1z"/>
			<path d="M47.8,333.7c-1.3,3.3-14.2-0.1-20.7,1.1c-1.9,3.1-2,12.1,2.2,12.5c-0.2,2.9-1.8-1.5-4.3,0c0.2-5.9,0-11.3-1.1-15.8
				C29.7,335,45.7,327,47.8,333.7z"/>
			<path d="M27.1,351.8c8.1-0.6,8.9,11,14.2,6.8c-1.2,5.1-13.3,3.9-15.3,4.5c-0.1-4.2,4.8-3.3,8.7-3.4c-0.2-3.6-2.1-5.4-5.4-5.6
				c-1.3-0.4-3.7,3.3-1.1,3.4C26.5,361,24.7,352.8,27.1,351.8z"/>
		</g>
	</g>
</g>
</svg>
